# xmcd
#
# Track frame offsets:
#	150
#	14435
#	48025
#
# Disc length: 1096 seconds
#
# Revision: 7
# Processed by: cddbd v1.5.2PL0 Copyright (c) Steve Scherf et al.
# Submitted via: EasyCDDAExtractor 2011.0.0.0
#
DISCID=18044603
DTITLE=Ruff Driverz  - Waiting For The Sun
DYEAR=1999
DGENRE=Trance
TTITLE0=Waiting For The Sun (Original Radio Edit)
TTITLE1=Waiting For The Sun (Fistful Of Dollars Mix)
TTITLE2=Waiting For The Sun (Heliotropic Mix)
EXTD=YEAR: 2001 - Schiller - Das Glockenspiel \n\nRipped by dj saxo
EXTT0=
EXTT1=
EXTT2=
PLAYORDER=
